<svg width="40" height="40" viewBox="0 0 40 40" fill="none" xmlns="http://www.w3.org/2000/svg">
<path fill-rule="evenodd" clip-rule="evenodd" d="M27.2416 20.6263C27.5861 20.2817 27.5861 19.7231 27.2416 19.3785L21.6263 13.7632C21.2817 13.4186 20.7231 13.4186 20.3785 13.7632C20.0339 14.1078 20.0339 14.6665 20.3785 15.011L24.4875 19.12L13.3824 19.12C12.895 19.12 12.5 19.5151 12.5 20.0024C12.5 20.4897 12.895 20.8847 13.3824 20.8847L24.4875 20.8847L20.3785 24.9937C20.0339 25.3383 20.0339 25.897 20.3785 26.2416C20.7231 26.5861 21.2817 26.5861 21.6263 26.2416L27.2416 20.6263Z" fill="white"/>
<rect x="0.5" y="0.5" width="39" height="39" rx="19.5" transform="matrix(-4.5666e-08 1 1 4.5666e-08 -2.2833e-08 2.2833e-08)" stroke="white" stroke-opacity="0.2"/>
</svg>
