<svg width="12" height="13" viewBox="0 0 12 13" fill="none" xmlns="http://www.w3.org/2000/svg">
<g id="place 2">
<path id="Subtract" fill-rule="evenodd" clip-rule="evenodd" d="M6.17717 2.14122C6.18103 2.13366 6.1888 2.12891 6.19729 2.12891H8.97406C9.01991 2.12891 9.0619 2.1546 9.08277 2.19544L10.4921 4.95367L11.1858 6.31135C11.2036 6.34623 11.2036 6.38755 11.1858 6.42244L10.4921 7.78012L9.07927 10.5452C9.05841 10.586 9.01642 10.6117 8.97056 10.6117H6.20497C6.19391 10.6117 6.18379 10.6055 6.17876 10.5957C6.17446 10.5873 6.17446 10.5773 6.17876 10.5689L8.29743 6.42244C8.31525 6.38755 8.31525 6.34623 8.29743 6.31135L6.17717 2.16178C6.17387 2.15532 6.17387 2.14767 6.17717 2.14122ZM1.83224 2.19544C1.85311 2.1546 1.8951 2.12891 1.94095 2.12891H4.71772C4.72621 2.12891 4.73398 2.13366 4.73784 2.14122C4.74114 2.14767 4.74114 2.15532 4.73784 2.16178L2.61758 6.31135C2.59976 6.34623 2.59976 6.38755 2.61758 6.42244L4.73625 10.5689C4.74054 10.5773 4.74054 10.5873 4.73625 10.5957C4.73122 10.6055 4.7211 10.6117 4.71004 10.6117H1.94445C1.89859 10.6117 1.8566 10.586 1.83574 10.5452L0.422906 7.78012L-0.270811 6.42244C-0.288636 6.38755 -0.288636 6.34623 -0.270811 6.31135L0.422906 4.95367L1.83224 2.19544Z" fill="white"/>
</g>
</svg>
