<svg width="176" height="45" fill="none" xmlns="http://www.w3.org/2000/svg"><g clip-path="url(#a)"><path fill-rule="evenodd" clip-rule="evenodd" d="M32.585 31.232h-3.236v-2.103H19.086V16.613h3.486v9.709h4.81v-9.709h3.486v9.709h1.717v4.91Zm2.39-14.619V29.13h3.343l5.149-7.33v7.33h3.486V16.613h-3.325l-5.167 7.349v-7.349h-3.487ZM59.26 28.352v1.367h-3.236v-1.382c-1.15-.081-2.158-.282-3.022-.603-1.144-.429-2.014-1.055-2.61-1.877-.584-.834-.876-1.841-.876-3.021 0-1.192.292-2.2.876-3.022.596-.834 1.472-1.466 2.628-1.895.86-.32 1.86-.52 3.004-.602v-1.294h3.236v1.288c1.177.078 2.196.287 3.057.625 1.133.43 1.99 1.061 2.575 1.896.584.822.876 1.823.876 3.003 0 1.169-.286 2.17-.858 3.004-.56.823-1.395 1.454-2.503 1.895-.886.343-1.935.549-3.147.618Zm-3.236-8.261c-.407.047-.771.116-1.091.206-.68.19-1.18.494-1.502.911-.322.406-.483.948-.483 1.628 0 .667.173 1.21.519 1.627.358.417.876.72 1.555.911.304.084.638.15 1.002.197v-5.48Zm3.236-.01v5.508c.436-.05.824-.128 1.162-.233.656-.202 1.138-.512 1.448-.93.31-.416.465-.953.465-1.608 0-.668-.16-1.204-.483-1.61-.321-.405-.804-.703-1.448-.893a6.27 6.27 0 0 0-1.144-.234Zm9.062-3.468V29.13h3.54v-3.272h2.181c1.144 0 2.128-.185 2.95-.554.835-.382 1.478-.918 1.931-1.61.453-.69.68-1.507.68-2.449 0-.953-.227-1.776-.68-2.467-.453-.703-1.096-1.24-1.93-1.61-.823-.369-1.806-.554-2.95-.554h-5.722Zm3.54 6.455h1.967c.739 0 1.287-.161 1.645-.483.369-.322.554-.769.554-1.34 0-.585-.185-1.038-.555-1.36-.357-.322-.905-.482-1.644-.482h-1.967v3.665Zm13.615 5.828c.846.322 1.77.483 2.77.483 1.014 0 1.938-.16 2.772-.483a6.572 6.572 0 0 0 2.2-1.358 6.248 6.248 0 0 0 1.447-2.056 6.314 6.314 0 0 0 .537-2.61c0-.942-.179-1.807-.537-2.593a6.25 6.25 0 0 0-1.448-2.056 6.429 6.429 0 0 0-2.199-1.377c-.834-.322-1.758-.483-2.771-.483-1.002 0-1.925.161-2.772.483a6.624 6.624 0 0 0-2.217 1.377 6.25 6.25 0 0 0-1.448 2.056c-.346.786-.518 1.65-.518 2.592 0 .942.172 1.806.518 2.593a6.45 6.45 0 0 0 1.448 2.074 6.775 6.775 0 0 0 2.218 1.358Zm4.094-2.7c-.405.168-.846.251-1.323.251s-.924-.083-1.341-.25a3.257 3.257 0 0 1-1.073-.715 3.724 3.724 0 0 1-.715-1.145 4.113 4.113 0 0 1-.25-1.466c0-.548.083-1.037.25-1.466.179-.44.417-.816.715-1.126a3.13 3.13 0 0 1 1.073-.733c.417-.167.864-.25 1.34-.25.478 0 .919.083 1.324.25.417.166.775.41 1.073.733.31.31.548.685.715 1.126.178.43.268.918.268 1.466 0 .537-.09 1.025-.268 1.466a3.323 3.323 0 0 1-.715 1.145c-.298.31-.656.548-1.073.715Zm8.24-9.583V29.13h6.418c1.61 0 2.837-.322 3.684-.966.858-.643 1.287-1.513 1.287-2.61 0-1.073-.399-1.883-1.198-2.431a3.982 3.982 0 0 0-1.07-.53c.19-.097.368-.206.534-.329.774-.584 1.162-1.382 1.162-2.396 0-1.037-.417-1.835-1.252-2.395-.822-.573-1.984-.859-3.486-.859h-6.08Zm6.275 9.977h-2.789v-2.575h2.789c.513 0 .894.108 1.145.322.262.203.393.519.393.948 0 .429-.131.757-.393.983-.251.215-.632.322-1.145.322Zm-.536-4.97h-2.253v-2.468h2.253c.501 0 .876.108 1.126.322.251.203.376.507.376.912s-.125.715-.376.93c-.25.202-.625.304-1.126.304Zm12.554-5.007-5.525 12.516h3.612l.976-2.432h5.307l.976 2.432h3.683l-5.543-12.516h-3.486Zm3.322 7.474-1.606-4.002-1.606 4.002h3.212Zm14.166 1.895v3.147h3.487V16.613h-5.632c-1.133 0-2.122.191-2.968.573-.835.381-1.484.93-1.949 1.645-.453.703-.68 1.549-.68 2.538 0 .954.215 1.776.644 2.468.441.691 1.067 1.221 1.877 1.591l.058.026-2.543 3.675h3.719l2.065-3.147h1.922Zm0-2.735v-3.844h-2.074c-.691 0-1.216.16-1.573.482-.346.31-.519.787-.519 1.43 0 .633.173 1.115.519 1.449.357.322.87.483 1.537.483h2.11Z" fill="#fff"/><mask id="b" style="mask-type:alpha" maskUnits="userSpaceOnUse" x="18" y="32" width="157" height="14"><path d="M19.625 45.215c-.238 0-.495-.018-.769-.054a8.573 8.573 0 0 1-.84-.161l.197-2.896c.166.035.327.053.482.053.49 0 .859-.19 1.109-.572.25-.393.423-.942.518-1.645a19.93 19.93 0 0 0 .197-2.467l.179-4.989h10.084V45h-3.487V34.505l.77.786h-5.06l.714-.822-.089 2.86a31.984 31.984 0 0 1-.25 3.29c-.131.966-.34 1.794-.626 2.486-.286.68-.685 1.204-1.198 1.573-.5.358-1.144.537-1.93.537ZM32.922 45l5.525-12.516h3.487L47.476 45h-3.683l-4.327-10.781h1.395L36.534 45h-3.611Zm3.022-2.432.912-2.61h6.115l.912 2.61h-7.939ZM49.626 45V32.484h10.46v2.736h-6.974v2.02h3.236c1.526 0 2.688.322 3.487.966.81.643 1.216 1.573 1.216 2.789 0 1.252-.453 2.235-1.36 2.95-.905.703-2.175 1.055-3.808 1.055h-6.257Zm3.486-2.539h2.54c.583 0 1.03-.12 1.34-.357.322-.239.483-.578.483-1.02 0-.882-.608-1.323-1.824-1.323h-2.539v2.7Zm16.632 2.79c-1.001 0-1.925-.162-2.772-.483a6.777 6.777 0 0 1-2.217-1.36 6.448 6.448 0 0 1-1.448-2.073c-.346-.787-.518-1.651-.518-2.593 0-.941.172-1.806.518-2.592a6.25 6.25 0 0 1 1.448-2.056 6.623 6.623 0 0 1 2.217-1.377c.847-.322 1.77-.483 2.772-.483 1.013 0 1.937.161 2.771.483.846.322 1.58.78 2.2 1.377a6.25 6.25 0 0 1 1.447 2.056c.358.786.537 1.65.537 2.592 0 .942-.179 1.812-.537 2.61a6.25 6.25 0 0 1-1.448 2.057 6.574 6.574 0 0 1-2.199 1.359c-.834.321-1.758.482-2.771.482Zm0-2.933c.477 0 .918-.083 1.323-.25a3.028 3.028 0 0 0 1.073-.715c.31-.322.548-.704.715-1.145.178-.44.268-.93.268-1.466 0-.548-.09-1.037-.268-1.466a3.14 3.14 0 0 0-.715-1.126 2.92 2.92 0 0 0-1.073-.733 3.441 3.441 0 0 0-1.323-.25c-.477 0-.924.083-1.341.25a3.13 3.13 0 0 0-1.073.733 3.5 3.5 0 0 0-.715 1.126c-.167.43-.25.918-.25 1.466 0 .537.083 1.025.25 1.466.179.441.417.823.715 1.145.31.31.668.548 1.073.715.417.167.864.25 1.34.25ZM79.307 45V32.484h5.721c1.144 0 2.128.185 2.95.555.835.37 1.478.906 1.931 1.609.453.691.68 1.514.68 2.467 0 .942-.227 1.758-.68 2.45-.453.691-1.096 1.227-1.93 1.609-.823.37-1.806.554-2.95.554h-3.755l1.573-1.538V45h-3.54Zm3.54-4.434-1.573-1.627h3.54c.739 0 1.287-.161 1.645-.483.369-.322.554-.769.554-1.34 0-.585-.185-1.038-.555-1.36-.357-.321-.905-.482-1.644-.482h-3.54l1.573-1.627v6.919ZM91.027 45l5.525-12.516h3.487L105.581 45h-3.683l-4.327-10.781h1.395L94.639 45h-3.611Zm3.022-2.432.912-2.61h6.115l.912 2.61h-7.939ZM109.873 45V34.505l.787.786h-4.631v-2.806h11.157v2.806h-4.613l.787-.786V45h-3.487Zm15.636.25c-1.001 0-1.925-.16-2.771-.482a6.761 6.761 0 0 1-2.217-1.36 6.453 6.453 0 0 1-1.449-2.073c-.345-.787-.518-1.651-.518-2.593 0-.941.173-1.806.518-2.592a6.255 6.255 0 0 1 1.449-2.056 6.608 6.608 0 0 1 2.217-1.377c.846-.322 1.77-.483 2.771-.483 1.013 0 1.937.161 2.771.483.847.322 1.58.78 2.2 1.377a6.266 6.266 0 0 1 1.448 2.056c.357.786.536 1.65.536 2.592 0 .942-.179 1.812-.536 2.61a6.265 6.265 0 0 1-1.448 2.057 6.573 6.573 0 0 1-2.2 1.359c-.834.321-1.758.482-2.771.482Zm0-2.932c.477 0 .918-.083 1.323-.25a3.03 3.03 0 0 0 1.073-.715c.31-.322.548-.704.715-1.145.179-.44.268-.93.268-1.466 0-.548-.089-1.037-.268-1.466a3.141 3.141 0 0 0-.715-1.126 2.923 2.923 0 0 0-1.073-.733 3.439 3.439 0 0 0-1.323-.25c-.477 0-.924.083-1.341.25a3.135 3.135 0 0 0-1.073.733c-.298.31-.536.685-.715 1.126-.167.43-.25.918-.25 1.466 0 .537.083 1.025.25 1.466.179.441.417.823.715 1.145.31.31.668.548 1.073.715.417.167.864.25 1.341.25ZM135.072 45V32.484h5.721c1.145 0 2.128.185 2.951.555.834.37 1.478.906 1.931 1.609.452.691.679 1.514.679 2.467 0 .942-.227 1.758-.679 2.45-.453.691-1.097 1.227-1.931 1.609-.823.37-1.806.554-2.951.554h-3.754l1.573-1.538V45h-3.54Zm3.54-4.434-1.573-1.627h3.54c.739 0 1.287-.161 1.645-.483.369-.322.554-.769.554-1.34 0-.585-.185-1.038-.554-1.36-.358-.321-.906-.482-1.645-.482h-3.54l1.573-1.627v6.919ZM148.673 45V32.484h3.486v7.349l5.168-7.349h3.325V45h-3.486v-7.33l-5.15 7.33h-3.343Zm22.373 0v-3.88l.84.733h-3.165c-1.12 0-2.086-.184-2.896-.554-.811-.37-1.436-.9-1.878-1.591-.429-.692-.643-1.514-.643-2.468 0-.989.226-1.835.679-2.538.465-.716 1.115-1.264 1.949-1.645.846-.382 1.836-.573 2.968-.573h5.632V45h-3.486Zm-7.706 0 3.128-4.523h3.558L167.058 45h-3.718Zm7.706-5.006v-5.596l.84.876h-2.914c-.692 0-1.216.16-1.574.482-.345.31-.518.787-.518 1.43 0 .633.173 1.115.518 1.449.358.322.87.483 1.538.483h2.95l-.84.876Z" fill="#000"/></mask><g mask="url(#b)"><path fill-rule="evenodd" clip-rule="evenodd" d="M18.852 45.161c.274.036.53.054.769.054.787 0 1.43-.179 1.93-.537.513-.37.913-.894 1.199-1.573.286-.691.494-1.52.625-2.485.132-.978.215-2.074.25-3.29l.064-2.038h3.602V45h3.487V32.485H20.694l-.18 4.988a19.93 19.93 0 0 1-.196 2.467c-.095.704-.268 1.252-.518 1.645-.25.382-.62.572-1.109.572-.155 0-.316-.017-.483-.053L18.012 45c.298.072.578.125.84.161Zm19.591-12.676L32.918 45h3.612l.976-2.431h5.307L43.79 45h3.683L41.93 32.485h-3.486Zm3.323 7.473-1.607-4.002-1.606 4.002h3.213Zm7.855-7.473V45h6.258c1.633 0 2.903-.351 3.809-1.055.905-.715 1.358-1.698 1.358-2.95 0-1.216-.405-2.145-1.215-2.789-.799-.644-1.961-.965-3.487-.965h-3.236v-2.02h6.973v-2.736H49.62Zm6.026 9.976h-2.539v-2.7h2.539c1.216 0 1.824.442 1.824 1.324 0 .44-.161.78-.483 1.019-.31.238-.757.357-1.341.357Zm11.321 2.307c.846.322 1.77.483 2.772.483 1.013 0 1.936-.161 2.77-.483a6.574 6.574 0 0 0 2.2-1.36 6.25 6.25 0 0 0 1.448-2.055 6.314 6.314 0 0 0 .537-2.61c0-.942-.18-1.806-.537-2.593a6.252 6.252 0 0 0-1.448-2.056 6.429 6.429 0 0 0-2.2-1.377c-.834-.322-1.757-.483-2.77-.483-1.002 0-1.925.161-2.772.483a6.622 6.622 0 0 0-2.217 1.377 6.25 6.25 0 0 0-1.448 2.056c-.346.787-.518 1.65-.518 2.592 0 .942.172 1.806.518 2.593a6.448 6.448 0 0 0 1.448 2.074 6.776 6.776 0 0 0 2.217 1.359Zm4.095-2.7c-.406.167-.847.25-1.323.25-.477 0-.924-.083-1.341-.25a3.256 3.256 0 0 1-1.073-.715 3.724 3.724 0 0 1-.715-1.144 4.116 4.116 0 0 1-.25-1.467c0-.548.083-1.037.25-1.466.178-.44.417-.816.715-1.126a3.13 3.13 0 0 1 1.073-.733c.417-.167.864-.25 1.34-.25.477 0 .918.083 1.324.25.417.167.774.411 1.072.733.31.31.549.685.715 1.126.18.43.269.918.269 1.466a3.87 3.87 0 0 1-.269 1.467 3.323 3.323 0 0 1-.715 1.144c-.298.31-.655.548-1.072.715Zm13.961-9.583h-5.721V45h3.54v-3.272h2.181c1.144 0 2.128-.184 2.95-.554.834-.381 1.478-.918 1.931-1.61.453-.69.68-1.507.68-2.449 0-.953-.227-1.776-.68-2.467-.453-.703-1.097-1.24-1.931-1.61-.822-.369-1.806-.553-2.95-.553Zm-2.181 6.454h1.966c.74 0 1.288-.16 1.645-.483.37-.321.555-.768.555-1.34 0-.585-.185-1.038-.555-1.36-.357-.321-.906-.482-1.645-.482h-1.966v3.665Zm17.191-6.454h-3.486L91.023 45h3.612l.976-2.431h5.307l.976 2.431h3.683l-5.543-12.515Zm-.163 7.473-1.607-4.002-1.606 4.002h3.213Zm9.998-4.666V45h3.487v-9.708h3.826v-2.807h-11.157v2.807h3.844Zm12.865 9.476c.846.322 1.77.483 2.771.483 1.013 0 1.937-.161 2.771-.483a6.578 6.578 0 0 0 2.199-1.36 6.254 6.254 0 0 0 1.449-2.055 6.323 6.323 0 0 0 .536-2.61c0-.942-.179-1.806-.536-2.593a6.256 6.256 0 0 0-1.449-2.056 6.433 6.433 0 0 0-2.199-1.377c-.834-.322-1.758-.483-2.771-.483-1.001 0-1.925.161-2.771.483a6.608 6.608 0 0 0-2.217 1.377 6.256 6.256 0 0 0-1.449 2.056c-.345.787-.518 1.65-.518 2.592 0 .942.173 1.806.518 2.593a6.453 6.453 0 0 0 1.449 2.074 6.761 6.761 0 0 0 2.217 1.359Zm4.094-2.7c-.405.167-.846.25-1.323.25s-.924-.083-1.341-.25a3.26 3.26 0 0 1-1.073-.715 3.727 3.727 0 0 1-.715-1.144 4.112 4.112 0 0 1-.25-1.467c0-.548.083-1.037.25-1.466.179-.44.417-.816.715-1.126.31-.322.668-.566 1.073-.733.417-.167.864-.25 1.341-.25s.918.083 1.323.25c.417.167.775.411 1.073.733.31.31.548.685.715 1.126.179.43.268.918.268 1.466 0 .537-.089 1.026-.268 1.467a3.324 3.324 0 0 1-.715 1.144 3.03 3.03 0 0 1-1.073.715Zm13.961-9.583h-5.721V45h3.54v-3.272h2.181c1.145 0 2.128-.184 2.95-.554.835-.381 1.478-.918 1.931-1.61.453-.69.68-1.507.68-2.449 0-.953-.227-1.776-.68-2.467-.453-.703-1.096-1.24-1.931-1.61-.822-.369-1.805-.553-2.95-.553Zm-2.181 6.454h1.967c.739 0 1.287-.16 1.645-.483.369-.321.554-.768.554-1.34 0-.585-.185-1.038-.554-1.36-.358-.321-.906-.482-1.645-.482h-1.967v3.665Zm13.547-6.454h-3.486V45h3.343l5.149-7.33V45h3.487V32.485h-3.326l-5.167 7.348v-7.348Zm18.886 9.368V45h3.487V32.485h-5.632c-1.133 0-2.122.19-2.968.572-.834.381-1.484.93-1.949 1.645-.453.703-.679 1.55-.679 2.539 0 .953.214 1.776.643 2.467.441.691 1.067 1.222 1.878 1.591l.057.026L163.335 45h3.719l2.065-3.147h1.922Zm0-2.735v-3.844h-2.074c-.691 0-1.215.16-1.573.483-.346.31-.519.786-.519 1.43 0 .632.173 1.114.519 1.448.358.322.87.483 1.538.483h2.109Z" fill="#fff"/></g><path d="M19.016.563v12.665h3.31V3.436H27.4v9.792h3.311V.563H19.016ZM50.601 10.556h-2.446V8.044H50.6c.781 0 1.562.321 1.562 1.283-.052.908-.78 1.23-1.562 1.23Zm.313-5.237h-2.76V3.395h6.195V.562h-9.474v12.666h6.143c2.447 0 4.32-1.283 4.32-3.955.053-2.672-1.822-3.954-4.424-3.954ZM38.636 10.46c-2.213 0-3.425-1.573-3.425-3.565 0-1.572.896-3.564 3.372-3.564 1.528 0 2.529.944 2.898 1.363l2.002-1.992C42.27 1.287 40.48.344 38.425.344c-3.635 0-6.48 2.673-6.48 6.551 0 3.617 2.845 6.552 6.48 6.552 2.16 0 4.11-1.048 5.268-2.673l-2.002-1.992c-.632.944-1.686 1.678-3.055 1.678ZM7.76.703 4.526 3.935h5.345v9.157l3.231-3.111V4.103a3.4 3.4 0 0 0-3.4-3.4H7.76Z" fill="#fff"/><path d="M5.827 13.172 9.059 9.94H3.79V.783L.56 4.035v5.737a3.4 3.4 0 0 0 3.4 3.4h1.868ZM2.894 34.875l1.133 1.133-1.133-1.133Zm4.149 0 1.133-1.133-1.133 1.133Zm-4.149 4.148-1.133 1.133 1.133-1.133Zm4.149 4.148L5.91 44.305l1.133 1.133 1.133-1.133-1.133-1.133Zm.02-.02 1.132-1.132-1.133-1.133-1.133 1.133 1.133 1.133Zm.019.02-1.133 1.133 1.133 1.133 1.133-1.133-1.133-1.133Zm4.148-8.296-1.133 1.133 1.133-1.133Zm-4.148 0-1.133-1.133 1.133 1.133Zm-.02.02L5.93 36.026l1.133 1.133 1.133-1.133-1.133-1.133Zm-3.035 1.113c.52-.52 1.363-.52 1.883 0l2.266-2.266a4.536 4.536 0 0 0-6.415 0l2.266 2.266Zm0 1.882a1.331 1.331 0 0 1 0-1.882l-2.266-2.266a4.536 4.536 0 0 0 0 6.414l2.266-2.266Zm4.149 4.148L4.027 37.89l-2.266 2.266 4.149 4.148 2.266-2.266Zm-2.247-.019-.02.02 2.267 2.265.02-.02-2.267-2.265Zm0 2.266.02.02 2.266-2.267-.02-.019-2.266 2.266Zm2.286.02 4.148-4.149-2.266-2.266-4.148 4.148 2.266 2.267Zm4.148-4.149a4.536 4.536 0 0 0 0-6.414l-2.266 2.266c.52.52.52 1.362 0 1.882l2.266 2.266Zm0-6.414a4.536 4.536 0 0 0-6.414 0l2.266 2.266c.52-.52 1.362-.52 1.882 0l2.266-2.266Zm-6.414 0-.02.02 2.266 2.265.02-.02-2.266-2.265Zm-.04 2.266.02.02 2.266-2.267-.02-.02-2.265 2.267Z" fill="#fff"/><path fill-rule="evenodd" clip-rule="evenodd" d="M7.744 17.67a.024.024 0 0 1 .02-.014h3.48c.056 0 .109.032.135.083l1.76 3.444.867 1.697a.153.153 0 0 1 0 .139l-.868 1.697-1.768 3.46a.152.152 0 0 1-.136.083h-3.45a.04.04 0 0 1-.036-.06l2.647-5.18a.152.152 0 0 0 0-.14l-2.651-5.188a.024.024 0 0 1 0-.022Zm-5.433.07a.153.153 0 0 1 .136-.084h3.478c.01 0 .017.005.022.013a.024.024 0 0 1 0 .022L3.295 22.88a.152.152 0 0 0 0 .139l2.648 5.18a.04.04 0 0 1-.037.06h-3.45a.153.153 0 0 1-.136-.083l-1.768-3.46-.867-1.697a.152.152 0 0 1 0-.14l.867-1.696 1.76-3.444Z" fill="#fff"/></g><defs><clipPath id="a"><path fill="#fff" d="M0 0h176v45H0z"/></clipPath></defs></svg>