<svg width="141" height="37" fill="none" xmlns="http://www.w3.org/2000/svg"><g clip-path="url(#a)"><path fill-rule="evenodd" clip-rule="evenodd" d="M26.069 24.98h-2.59v-1.082H15.27V13.886h2.789v7.767h3.847v-7.767h2.79v7.767h1.373v3.328Zm1.911-11.094v10.012h2.675l4.12-5.864v5.864h2.788V13.886h-2.66l-4.134 5.879v-5.879H27.98Zm19.429 9.39v1.095h-2.59v-1.106c-.92-.065-1.725-.226-2.417-.482-.915-.344-1.611-.844-2.088-1.502-.467-.668-.7-1.473-.7-2.417 0-.954.233-1.76.7-2.418.477-.667 1.178-1.173 2.103-1.516.687-.255 1.488-.415 2.403-.48v-1.036h2.589v1.03c.942.063 1.757.23 2.446.5.905.344 1.592.85 2.06 1.517.466.658.7 1.459.7 2.403 0 .934-.229 1.735-.687 2.403-.448.658-1.115 1.163-2.002 1.516-.708.274-1.547.439-2.517.494Zm-2.59-6.608a5.673 5.673 0 0 0-.872.165c-.543.152-.944.395-1.201.73-.258.323-.387.757-.387 1.3 0 .535.139.968.415 1.302.286.334.701.577 1.245.73.243.067.51.12.8.157v-4.384Zm2.59-.008v4.407c.349-.04.659-.103.93-.186.524-.163.91-.41 1.158-.744.248-.334.372-.763.372-1.288 0-.534-.129-.963-.386-1.287-.258-.324-.644-.563-1.159-.715a5.015 5.015 0 0 0-.915-.187Zm7.25-2.774v10.012h2.831v-2.617h1.745c.916 0 1.702-.148 2.36-.443.668-.306 1.183-.735 1.545-1.288.362-.553.544-1.206.544-1.96 0-.762-.181-1.42-.544-1.973-.362-.563-.877-.992-1.545-1.288-.658-.295-1.444-.443-2.36-.443h-4.577Zm2.831 5.164h1.574c.59 0 1.03-.13 1.316-.387.295-.257.443-.615.443-1.072 0-.468-.148-.83-.443-1.087-.287-.258-.725-.387-1.316-.387H57.49v2.933Zm10.892 4.663a6.19 6.19 0 0 0 2.217.386c.81 0 1.55-.129 2.217-.386a5.26 5.26 0 0 0 1.76-1.088 5 5 0 0 0 1.158-1.644 5.05 5.05 0 0 0 .429-2.089c0-.753-.143-1.444-.43-2.074a4.998 4.998 0 0 0-1.158-1.645 5.144 5.144 0 0 0-1.759-1.101c-.668-.257-1.407-.386-2.217-.386a6.19 6.19 0 0 0-2.217.386 5.3 5.3 0 0 0-1.774 1.101 5 5 0 0 0-1.158 1.645 5.1 5.1 0 0 0-.415 2.074 5.1 5.1 0 0 0 .415 2.074c.276.63.662 1.183 1.158 1.66.506.467 1.097.83 1.774 1.087Zm3.275-2.16c-.324.133-.677.2-1.058.2s-.739-.067-1.073-.2a2.605 2.605 0 0 1-.858-.572 2.98 2.98 0 0 1-.572-.916 3.29 3.29 0 0 1-.2-1.173c0-.438.066-.83.2-1.173a2.8 2.8 0 0 1 .572-.9c.248-.258.534-.454.858-.587.334-.134.692-.2 1.073-.2s.734.066 1.058.2c.334.133.62.329.859.586.248.248.438.549.572.901.143.344.214.735.214 1.173 0 .43-.071.82-.214 1.173a2.659 2.659 0 0 1-.572.916 2.42 2.42 0 0 1-.859.572Zm6.592-7.667v10.012h5.135c1.288 0 2.27-.257 2.947-.772.686-.515 1.03-1.21 1.03-2.088 0-.858-.32-1.507-.959-1.945a3.191 3.191 0 0 0-.855-.425c.151-.077.294-.164.426-.262.62-.467.93-1.106.93-1.917 0-.83-.334-1.468-1.001-1.916-.658-.458-1.588-.687-2.79-.687H78.25Zm5.02 7.981h-2.23v-2.06h2.23c.411 0 .716.087.916.258.21.162.315.415.315.758s-.105.606-.315.787c-.2.172-.505.257-.915.257Zm-.428-3.976h-1.802v-1.974h1.802c.4 0 .7.086.901.258.2.162.3.405.3.73 0 .323-.1.571-.3.743-.2.162-.5.243-.901.243Zm10.043-4.005-4.42 10.012h2.89l.78-1.945h4.246l.78 1.945h2.947l-4.434-10.012h-2.79Zm2.658 5.979-1.285-3.201-1.285 3.2h2.57Zm11.333 1.516v2.517h2.789V13.886h-4.506c-.906 0-1.697.153-2.374.458-.668.305-1.187.744-1.559 1.316-.363.562-.544 1.24-.544 2.03 0 .764.172 1.422.515 1.975.353.553.854.977 1.502 1.273l.046.02-2.034 2.94h2.975l1.652-2.517h1.538Zm0-2.188v-3.076h-1.66c-.553 0-.972.13-1.258.387-.277.247-.415.629-.415 1.144 0 .505.138.892.415 1.159.286.257.696.386 1.23.386h1.688Z" fill="#fff"/><mask id="b" style="mask-type:alpha" maskUnits="userSpaceOnUse" x="14" y="26" width="126" height="11"><path d="M15.698 36.765c-.19 0-.395-.014-.615-.043a6.875 6.875 0 0 1-.672-.128l.158-2.317c.133.028.262.042.386.042.39 0 .686-.152.886-.457.2-.315.339-.754.415-1.316.086-.563.139-1.22.158-1.974l.143-3.99h8.067v10.012h-2.79v-8.396l.616.629h-4.048l.572-.658-.072 2.289c-.028.972-.095 1.85-.2 2.631-.105.773-.272 1.436-.5 1.989-.23.543-.549.963-.959 1.258-.4.286-.915.43-1.544.43Zm10.639-.171 4.42-10.013h2.788l4.434 10.013h-2.946l-3.462-8.625h1.116l-3.461 8.625h-2.89Zm2.417-1.946.73-2.088h4.891l.73 2.088h-6.351Zm10.945 1.946V26.58h8.367v2.189h-5.578v1.616h2.59c1.22 0 2.15.258 2.788.772.649.515.973 1.26.973 2.232 0 1.001-.362 1.788-1.087 2.36-.725.562-1.74.844-3.047.844H39.7Zm2.79-2.031h2.03c.468 0 .825-.096 1.073-.286.258-.191.386-.463.386-.816 0-.705-.486-1.058-1.459-1.058h-2.03v2.16Zm13.304 2.231c-.8 0-1.54-.129-2.217-.386a5.42 5.42 0 0 1-1.773-1.087 5.157 5.157 0 0 1-1.159-1.66 5.098 5.098 0 0 1-.415-2.074c0-.753.139-1.444.415-2.073a5 5 0 0 1 1.159-1.645 5.3 5.3 0 0 1 1.773-1.102 6.187 6.187 0 0 1 2.217-.386c.811 0 1.55.129 2.218.386a5.145 5.145 0 0 1 1.759 1.102 5.003 5.003 0 0 1 1.158 1.645c.286.629.43 1.32.43 2.073 0 .754-.144 1.45-.43 2.089a5 5 0 0 1-1.158 1.645 5.26 5.26 0 0 1-1.76 1.087c-.667.257-1.406.386-2.217.386Zm0-2.346c.382 0 .735-.066 1.059-.2.334-.133.62-.324.858-.572a2.66 2.66 0 0 0 .572-.916c.143-.352.215-.743.215-1.172 0-.44-.072-.83-.215-1.173a2.513 2.513 0 0 0-.572-.901 2.337 2.337 0 0 0-.858-.587 2.753 2.753 0 0 0-1.059-.2c-.381 0-.739.067-1.072.2-.324.134-.61.33-.858.587-.239.248-.43.548-.573.9-.133.344-.2.735-.2 1.173 0 .43.067.82.2 1.173.143.353.334.658.572.916.248.248.535.438.859.572.333.134.691.2 1.072.2Zm7.65 2.146V26.58h4.578c.915 0 1.702.148 2.36.444.668.295 1.183.724 1.545 1.287.362.553.543 1.211.543 1.974 0 .753-.18 1.406-.543 1.96-.362.553-.877.982-1.545 1.287-.658.295-1.445.443-2.36.443h-3.004l1.259-1.23v3.848h-2.832Zm2.833-3.547-1.259-1.302h2.832c.591 0 1.03-.129 1.316-.386.296-.258.444-.615.444-1.073 0-.467-.148-.83-.444-1.087-.286-.258-.725-.386-1.316-.386h-2.832l1.259-1.302v5.536Zm6.544 3.547 4.42-10.013h2.79l4.433 10.013h-2.946l-3.462-8.625h1.116l-3.461 8.625h-2.89Zm2.418-1.946.73-2.088h4.891l.73 2.088h-6.351Zm12.66 1.946v-8.396l.629.629h-3.705v-2.246h8.925v2.246h-3.69l.63-.63v8.397h-2.79Zm12.508.2c-.801 0-1.54-.129-2.217-.386a5.42 5.42 0 0 1-1.774-1.087 5.16 5.16 0 0 1-1.159-1.66 5.1 5.1 0 0 1-.414-2.074 5.1 5.1 0 0 1 .414-2.073 5.003 5.003 0 0 1 1.159-1.645 5.3 5.3 0 0 1 1.774-1.102 6.188 6.188 0 0 1 2.217-.386c.81 0 1.549.129 2.217.386a5.144 5.144 0 0 1 1.759 1.102 5.007 5.007 0 0 1 1.159 1.645c.286.629.429 1.32.429 2.073 0 .754-.143 1.45-.429 2.089a5.005 5.005 0 0 1-1.159 1.645 5.259 5.259 0 0 1-1.759 1.087c-.668.257-1.407.386-2.217.386Zm0-2.346c.381 0 .734-.066 1.058-.2.334-.133.62-.324.858-.572a2.65 2.65 0 0 0 .572-.916c.144-.352.215-.743.215-1.172 0-.44-.071-.83-.215-1.173a2.505 2.505 0 0 0-.572-.901 2.33 2.33 0 0 0-.858-.587 2.751 2.751 0 0 0-1.058-.2c-.382 0-.74.067-1.073.2-.324.134-.61.33-.858.587-.239.248-.43.548-.572.9-.134.344-.2.735-.2 1.173 0 .43.066.82.2 1.173.143.353.333.658.572.916.248.248.534.438.858.572.334.134.691.2 1.073.2Zm7.65 2.146V26.58h4.577c.916 0 1.702.148 2.36.444.668.295 1.183.724 1.545 1.287.362.553.544 1.211.544 1.974 0 .753-.182 1.406-.544 1.96-.362.553-.877.982-1.545 1.287-.658.295-1.444.443-2.36.443h-3.003l1.258-1.23v3.848h-2.832Zm2.832-3.547-1.258-1.302h2.832c.591 0 1.029-.129 1.316-.386.295-.258.443-.615.443-1.073 0-.467-.148-.83-.443-1.087-.287-.258-.725-.386-1.316-.386h-2.832l1.258-1.302v5.536Zm8.049 3.547V26.58h2.789v5.88l4.134-5.88h2.66v10.013h-2.789v-5.865l-4.119 5.865h-2.675Zm17.898 0V33.49l.672.586h-2.532c-.896 0-1.668-.148-2.317-.443-.648-.296-1.149-.72-1.502-1.273-.343-.553-.514-1.211-.514-1.974 0-.791.181-1.468.543-2.031.372-.572.892-1.01 1.559-1.316.677-.305 1.469-.458 2.374-.458h4.506v10.013h-2.789Zm-6.165 0 2.503-3.619h2.847l-2.375 3.619h-2.975Zm6.165-4.005v-4.477l.672.7h-2.331c-.553 0-.973.13-1.259.387-.277.248-.415.63-.415 1.144 0 .506.138.892.415 1.159.286.257.696.386 1.23.386h2.36l-.672.7Z" fill="#000"/></mask><g mask="url(#b)"><path fill-rule="evenodd" clip-rule="evenodd" d="M15.079 36.724c.219.029.424.043.615.043.629 0 1.144-.143 1.544-.429.41-.296.73-.715.959-1.259.229-.553.395-1.215.5-1.988.105-.782.172-1.66.2-2.632l.052-1.63h2.88v7.767h2.79V26.583h-8.067l-.143 3.99a15.927 15.927 0 0 1-.158 1.975c-.076.562-.214 1-.414 1.316-.2.305-.496.457-.887.457-.124 0-.253-.014-.386-.043l-.158 2.318c.239.057.463.1.672.128Zm15.672-10.14-4.42 10.012h2.89L30 34.65h4.246l.781 1.946h2.947L33.54 26.583h-2.79Zm2.658 5.978-1.285-3.201-1.284 3.2h2.57Zm6.285-5.979v10.013H44.7c1.307 0 2.322-.282 3.047-.844.725-.573 1.087-1.36 1.087-2.36 0-.973-.324-1.717-.973-2.232-.639-.515-1.568-.772-2.789-.772h-2.589V28.77h5.579v-2.188h-8.368Zm4.82 7.981h-2.03v-2.16h2.03c.973 0 1.46.353 1.46 1.059 0 .353-.13.625-.387.815-.248.191-.605.286-1.073.286Zm9.057 1.846a6.187 6.187 0 0 0 2.218.386c.81 0 1.549-.129 2.216-.386a5.259 5.259 0 0 0 1.76-1.087 5.001 5.001 0 0 0 1.158-1.645 5.05 5.05 0 0 0 .43-2.089c0-.753-.144-1.444-.43-2.074a5 5 0 0 0-1.158-1.645 5.144 5.144 0 0 0-1.76-1.101c-.667-.257-1.406-.386-2.217-.386-.8 0-1.54.129-2.216.386a5.3 5.3 0 0 0-1.774 1.101 5 5 0 0 0-1.159 1.645 5.1 5.1 0 0 0-.415 2.074 5.1 5.1 0 0 0 .415 2.074c.277.63.663 1.183 1.159 1.66a5.42 5.42 0 0 0 1.773 1.087Zm3.276-2.16c-.324.133-.677.2-1.059.2-.38 0-.738-.067-1.072-.2a2.605 2.605 0 0 1-.858-.572 2.98 2.98 0 0 1-.573-.916 3.291 3.291 0 0 1-.2-1.173c0-.438.067-.83.2-1.173a2.8 2.8 0 0 1 .573-.9c.247-.258.534-.454.858-.587.334-.134.691-.2 1.072-.2.382 0 .735.066 1.059.2.334.133.62.329.858.586.248.248.439.549.572.901.143.344.215.735.215 1.173 0 .43-.072.82-.215 1.173a2.66 2.66 0 0 1-.572.916 2.422 2.422 0 0 1-.858.572Zm11.169-7.667h-4.577v10.013h2.832v-2.618h1.745c.915 0 1.702-.148 2.36-.444.668-.305 1.182-.734 1.545-1.287.362-.553.543-1.206.543-1.96 0-.762-.18-1.42-.543-1.973-.363-.563-.877-.992-1.545-1.288-.658-.295-1.445-.443-2.36-.443Zm-1.745 5.164h1.573c.592 0 1.03-.13 1.316-.387.296-.257.444-.615.444-1.072 0-.468-.148-.83-.444-1.087-.286-.258-.724-.387-1.316-.387h-1.573v2.933Zm13.754-5.164h-2.79l-4.42 10.013h2.89l.78-1.946h4.246l.781 1.946h2.947l-4.434-10.013Zm-.132 5.979-1.285-3.201-1.284 3.2h2.57Zm8-3.733v7.767h2.788v-7.767h3.061v-2.246h-8.925v2.246h3.075Zm10.29 7.58a6.187 6.187 0 0 0 2.218.387c.81 0 1.549-.129 2.217-.386a5.259 5.259 0 0 0 1.759-1.087 5.007 5.007 0 0 0 1.159-1.645 5.052 5.052 0 0 0 .429-2.089c0-.753-.143-1.444-.429-2.074a5.005 5.005 0 0 0-1.159-1.645 5.145 5.145 0 0 0-1.759-1.101c-.668-.257-1.407-.386-2.217-.386-.801 0-1.54.129-2.217.386a5.3 5.3 0 0 0-1.774 1.101 4.998 4.998 0 0 0-1.159 1.645 5.1 5.1 0 0 0-.414 2.074 5.1 5.1 0 0 0 .414 2.074 5.16 5.16 0 0 0 1.16 1.66 5.42 5.42 0 0 0 1.773 1.087Zm3.276-2.16c-.324.134-.677.201-1.058.201a2.86 2.86 0 0 1-1.073-.2 2.605 2.605 0 0 1-.858-.572 2.981 2.981 0 0 1-.572-.916 3.291 3.291 0 0 1-.2-1.173c0-.438.066-.83.2-1.173.143-.352.333-.653.572-.9.248-.258.534-.454.858-.587a2.86 2.86 0 0 1 1.073-.2c.381 0 .734.066 1.058.2.334.133.62.329.858.586.248.248.439.549.573.901.143.344.214.735.214 1.173 0 .43-.071.82-.214 1.173a2.668 2.668 0 0 1-.573.916 2.416 2.416 0 0 1-.858.572Zm11.169-7.666h-4.577v10.013h2.832v-2.618h1.745c.916 0 1.702-.148 2.36-.444.668-.305 1.183-.734 1.545-1.287.362-.553.544-1.206.544-1.96 0-.762-.182-1.42-.544-1.973-.362-.563-.877-.992-1.545-1.288-.658-.295-1.444-.443-2.36-.443Zm-1.745 5.164h1.574c.591 0 1.03-.13 1.316-.387.295-.257.443-.615.443-1.072 0-.468-.148-.83-.443-1.087-.286-.258-.725-.387-1.316-.387h-1.574v2.933Zm10.838-5.164h-2.789v10.013h2.675l4.119-5.865v5.864h2.789V26.584h-2.66l-4.134 5.879v-5.879Zm15.109 7.495v2.517h2.789V26.584h-4.505c-.906 0-1.698.153-2.375.458-.667.305-1.187.744-1.559 1.316-.362.562-.543 1.24-.543 2.03 0 .764.171 1.422.514 1.975.353.553.854.977 1.502 1.273l.046.02-2.034 2.94h2.975l1.652-2.517h1.538Zm0-2.188v-3.076h-1.659c-.553 0-.973.13-1.259.387-.276.247-.415.629-.415 1.144 0 .505.139.892.415 1.158.286.258.696.387 1.23.387h1.688Z" fill="#fff"/></g><path d="M15.21.453v10.133h2.65V2.752h4.059v7.834h2.648V.453h-9.356ZM40.48 8.448h-1.958v-2.01h1.958c.624 0 1.249.257 1.249 1.027-.042.726-.625.983-1.25.983Zm.25-4.19h-2.208V2.72h4.956V.453h-7.58v10.133h4.915c1.957 0 3.456-1.026 3.456-3.164.042-2.138-1.457-3.164-3.54-3.164ZM30.907 8.374c-1.77 0-2.74-1.258-2.74-2.851 0-1.258.717-2.852 2.698-2.852 1.222 0 2.023.755 2.318 1.09l1.601-1.593C33.815 1.036 32.382.281 30.738.281c-2.907 0-5.183 2.139-5.183 5.242 0 2.893 2.276 5.24 5.183 5.24 1.729 0 3.288-.838 4.215-2.138l-1.602-1.593c-.505.755-1.348 1.342-2.444 1.342ZM6.21.555 3.625 3.14H7.9v7.325l2.586-2.488V3.274a2.72 2.72 0 0 0-2.72-2.72H6.21Z" fill="#fff"/><path d="M4.665 10.523 7.25 7.938H3.036V.613l-2.585 2.6v4.59a2.72 2.72 0 0 0 2.72 2.72h1.494ZM2.312 27.906l.907.907-.907-.907Zm3.319 0L6.537 27l-.906.906Zm-3.319 3.319-.906.906.906-.906Zm3.319 3.319-.906.906.906.906.906-.906-.906-.907Zm.016-.017.907-.906-.907-.907-.906.907.906.906Zm.017.017-.906.906.906.906.906-.906-.906-.907Zm3.319-6.638L9.889 27l-.906.906Zm-3.32 0L4.759 27l.906.906Zm-.016.017-.906.906.906.906.907-.906-.907-.907Zm-2.428.89a1.065 1.065 0 0 1 1.506 0L6.537 27a3.629 3.629 0 0 0-5.131 0l1.813 1.813Zm0 1.505a1.065 1.065 0 0 1 0-1.506L1.406 27a3.629 3.629 0 0 0 0 5.131l1.813-1.813Zm3.318 3.32-3.318-3.32-1.813 1.813 3.319 3.319 1.812-1.813Zm-1.796-.017-.016.016 1.812 1.813.017-.017-1.813-1.812Zm0 1.812.017.017 1.812-1.813-.016-.016-1.813 1.812Zm1.83.017 3.318-3.319-1.813-1.813-3.319 3.32L6.57 35.45Zm3.318-3.319a3.628 3.628 0 0 0 0-5.131l-1.813 1.813c.416.415.416 1.09 0 1.505l1.813 1.813Zm0-5.131a3.629 3.629 0 0 0-5.131 0l1.812 1.813a1.065 1.065 0 0 1 1.506 0L9.89 27Zm-5.131 0-.017.016 1.813 1.813.016-.017L4.757 27Zm-.033 1.813.016.016 1.813-1.813L6.537 27l-1.812 1.813Z" fill="#fff"/><path fill-rule="evenodd" clip-rule="evenodd" d="M6.18 14.137a.023.023 0 0 1 .02-.012h2.777c.046 0 .088.026.109.066l1.409 2.76.694 1.357a.122.122 0 0 1 0 .11l-.694 1.359-1.413 2.764a.122.122 0 0 1-.108.067H6.208a.03.03 0 0 1-.026-.043L8.3 18.42a.122.122 0 0 0 0-.111l-2.12-4.15a.023.023 0 0 1 0-.02Zm-4.345.054a.122.122 0 0 1 .11-.066H4.72a.023.023 0 0 1 .02.033l-2.12 4.15a.122.122 0 0 0 0 .11l2.12 4.148a.03.03 0 0 1-.027.042H1.947a.122.122 0 0 1-.109-.067L.426 19.777l-.694-1.358a.122.122 0 0 1 0-.111l.694-1.358 1.41-2.758Z" fill="#fff"/></g><defs><clipPath id="a"><path fill="#fff" d="M0 0h141v37H0z"/></clipPath></defs></svg>