<svg width="12" height="11" viewBox="0 0 12 11" fill="none" xmlns="http://www.w3.org/2000/svg">
<g id="place 3">
<path id="Union" d="M2.3133 2.90217L3.21969 3.80855L2.3133 2.90217ZM5.63199 2.90217L6.53838 1.99578V1.99578L5.63199 2.90217ZM2.3133 6.22086L1.40691 7.12725L2.3133 6.22086ZM5.63199 9.53955L4.72561 10.4459L5.63199 11.3523L6.53838 10.4459L5.63199 9.53955ZM5.64843 9.52312L6.55481 8.61673L5.64843 7.71034L4.74204 8.61673L5.64843 9.52312ZM5.66486 9.53955L4.75848 10.4459L5.66486 11.3523L6.57125 10.4459L5.66486 9.53955ZM8.98355 2.90217L9.88994 1.99578L8.98355 2.90217ZM5.66486 2.90217L4.75848 1.99578V1.99578L5.66486 2.90217ZM5.64843 2.9186L4.74204 3.82499L5.64843 4.73138L6.55481 3.82499L5.64843 2.9186ZM3.21969 3.80855C3.63553 3.39271 4.30976 3.39271 4.72561 3.80855L6.53838 1.99578C5.12136 0.578766 2.82393 0.578766 1.40691 1.99578L3.21969 3.80855ZM3.21969 5.31447C2.80384 4.89863 2.80384 4.2244 3.21969 3.80855L1.40691 1.99578C-0.0101016 3.4128 -0.010101 5.71023 1.40691 7.12725L3.21969 5.31447ZM6.53838 8.63317L3.21969 5.31447L1.40691 7.12725L4.72561 10.4459L6.53838 8.63317ZM4.74204 8.61673L4.72561 8.63317L6.53838 10.4459L6.55481 10.4295L4.74204 8.61673ZM4.74204 10.4295L4.75848 10.4459L6.57125 8.63317L6.55481 8.61673L4.74204 10.4295ZM6.57125 10.4459L9.88994 7.12725L8.07717 5.31447L4.75848 8.63317L6.57125 10.4459ZM9.88994 7.12725C11.307 5.71023 11.307 3.4128 9.88994 1.99578L8.07717 3.80855C8.49302 4.2244 8.49302 4.89863 8.07717 5.31447L9.88994 7.12725ZM9.88994 1.99578C8.47293 0.578766 6.17549 0.578766 4.75848 1.99578L6.57125 3.80855C6.9871 3.39271 7.66132 3.39271 8.07717 3.80855L9.88994 1.99578ZM4.75848 1.99578L4.74204 2.01222L6.55481 3.82499L6.57125 3.80855L4.75848 1.99578ZM4.72561 3.80855L4.74204 3.82499L6.55481 2.01222L6.53838 1.99578L4.72561 3.80855Z" fill="white"/>
</g>
</svg>
