 <svg width="40" height="40" viewBox="0 0 40 40" fill="none" xmlns="http://www.w3.org/2000/svg"><rect width="40" height="40" rx="20" transform="matrix(1 0 0 -1 0 40)" fill="white"/><rect x="0.5" y="-0.5" width="39" height="39" rx="19.5" transform="matrix(1 0 0 -1 0 39)" stroke="#13144B" stroke-opacity="0.2"/><path fill-rule="evenodd" clip-rule="evenodd" d="M19.3776 27.2416C19.7222 27.5861 20.2809 27.5861 20.6254 27.2416L26.2407 21.6263C26.5853 21.2817 26.5853 20.723 26.2407 20.3785C25.8961 20.0339 25.3374 20.0339 24.9929 20.3785L20.8839 24.4875V13.3824C20.8839 12.895 20.4888 12.5 20.0015 12.5C19.5142 12.5 19.1192 12.895 19.1192 13.3824V24.4875L15.0102 20.3785C14.6656 20.0339 14.1069 20.0339 13.7623 20.3785C13.4178 20.723 13.4178 21.2817 13.7623 21.6263L19.3776 27.2416Z" fill="#13144B"/></svg>