<svg width="32" height="32" viewBox="0 0 32 32" fill="none" xmlns="http://www.w3.org/2000/svg">
<rect x="0.231884" y="-0.231884" width="31.5362" height="31.5362" rx="15.7681" transform="matrix(1 0 0 -1 0 31.5362)" stroke="white" stroke-opacity="0.2" stroke-width="0.463768"/>
<path fill-rule="evenodd" clip-rule="evenodd" d="M16.4628 10.6265C16.2071 10.3708 15.7926 10.3708 15.5369 10.6265L11.3702 14.7931C11.1145 15.0488 11.1145 15.4634 11.3702 15.7191C11.6259 15.9748 12.0405 15.9748 12.2962 15.7191L15.3451 12.6701L15.3451 20.9104C15.3451 21.272 15.6383 21.5651 15.9999 21.5651C16.3615 21.5651 16.6546 21.272 16.6546 20.9104L16.6546 12.6701L19.7036 15.7191C19.9593 15.9748 20.3738 15.9748 20.6295 15.7191C20.8852 15.4634 20.8852 15.0488 20.6295 14.7931L16.4628 10.6265Z" fill="white"/>
</svg>
